<svg width="50" height="50" viewBox="0 0 50 50" fill="none" xmlns="http://www.w3.org/2000/svg">
    <g clipPath="url(#clip0_49_69)">
        <path fillRule="evenodd" clipRule="evenodd"
            d="M4.28512 31.1594C1.92073 31.1594 0.000488281 33.0867 0.000488281 35.4601C0.000488281 37.8335 1.92073 39.7812 4.28512 39.7812C4.74737 39.7812 5.20218 39.7038 5.63923 39.558C12.6171 50.2967 26.4633 52.7746 36.6014 46.9626C36.8975 46.7927 37.0131 46.3674 36.8438 46.07C36.6745 45.7726 36.2509 45.6567 35.9545 45.8266C26.4243 51.2899 13.414 49.025 6.79123 38.9493C7.86754 38.1645 8.56977 36.8927 8.56977 35.4599C8.56977 33.0866 6.64969 31.1594 4.28512 31.1594Z"
            fill="black" />
        <path fillRule="evenodd" clipRule="evenodd"
            d="M36.6012 6.93763C36.0608 7.00656 35.8982 7.89804 36.3789 8.1548C44.0097 12.8247 48.2705 21.9629 46.4029 31.2004C46.1796 31.1624 45.9473 31.1396 45.7158 31.1396C43.3514 31.1396 41.4311 33.067 41.4311 35.4403C41.4311 37.8137 43.3514 39.7614 45.7158 39.7614C48.0802 39.7614 50.0004 37.8137 50.0004 35.4403C50.0004 33.7633 49.0419 32.3096 47.6358 31.6062C49.6855 21.7817 45.1748 12.014 37.0454 7.03899C36.9375 6.97012 36.8091 6.93431 36.6814 6.93756C36.6542 6.93585 36.6284 6.93592 36.6012 6.93763Z"
            fill="black" />
        <path fillRule="evenodd" clipRule="evenodd"
            d="M25.0004 0.000173397C22.7206 0.000173397 20.8672 1.80127 20.7361 4.05748C10.965 5.87204 3.84509 13.6331 2.22349 22.8429C2.20481 22.9284 2.20357 23.0169 2.21985 23.103C2.23614 23.189 2.2696 23.2709 2.31824 23.3436C2.36687 23.4164 2.42967 23.4785 2.50285 23.5262C2.57603 23.5739 2.65808 23.6063 2.74405 23.6214C2.83002 23.6364 2.91815 23.6339 3.00311 23.6139C3.08808 23.5938 3.16813 23.5568 3.23845 23.5049C3.30876 23.453 3.36789 23.3874 3.41227 23.312C3.45665 23.2365 3.48537 23.1529 3.49668 23.066C5.0201 14.4154 11.6717 7.11644 20.8372 5.35563C21.3068 7.22235 22.9978 8.60152 25.0006 8.60152C27.365 8.60152 29.2852 6.67413 29.2852 4.30076C29.2852 1.92739 27.3648 0.000173397 25.0004 0.000173397Z"
            fill="black" />
    </g>
    <defs>
        <clipPath id="clip0_49_69">
            <rect width="50" height="50" fill="white" />
        </clipPath>
    </defs>
</svg>